<?xml version="1.0" standalone="no"?>
<!DOCTYPE svg PUBLIC "-//W3C//DTD SVG 20010904//EN"
 "http://www.w3.org/TR/2001/REC-SVG-20010904/DTD/svg10.dtd">
<svg version="1.0" xmlns="http://www.w3.org/2000/svg"
 width="500.000000pt" height="500.000000pt" viewBox="0 0 500.000000 500.000000"
 preserveAspectRatio="xMidYMid meet">

<g transform="translate(0.000000,500.000000) scale(0.100000,-0.100000)"
fill="#000000" stroke="none">
<path d="M635 2941 c-43 -4 -59 -10 -57 -20 1 -7 13 -50 27 -96 61 -212 60
-464 -4 -706 -11 -42 -23 -84 -27 -93 -5 -14 7 -16 126 -16 72 0 130 3 128 8
-1 4 -17 37 -35 73 -65 132 -78 239 -43 353 17 53 33 79 81 131 67 71 167 129
243 140 109 17 115 -25 18 -128 -139 -148 -185 -223 -197 -322 -8 -58 12 -150
45 -215 l20 -40 154 0 154 0 -29 53 c-77 139 -95 285 -49 402 45 117 202 237
328 252 54 6 84 -12 75 -45 -2 -10 -49 -67 -104 -127 -54 -60 -111 -132 -124
-160 -50 -101 -49 -215 1 -321 l25 -54 174 0 173 0 -24 76 c-44 139 -57 243
-51 419 6 155 21 249 61 380 8 27 13 51 11 54 -3 2 -58 5 -123 5 -109 1 -121
-1 -180 -28 -71 -33 -153 -114 -172 -171 -7 -23 -18 -35 -30 -35 -14 0 -18 10
-22 49 -13 137 -132 193 -403 189 -60 -1 -137 -4 -170 -7z"/>
<path d="M2077 2936 c-174 -51 -287 -233 -287 -466 0 -196 88 -365 227 -435
53 -28 66 -30 163 -30 101 0 108 1 168 34 35 19 79 53 99 75 133 155 161 424
63 623 -38 77 -129 164 -197 187 -66 23 -177 29 -236 12z m401 -240 c35 -35 8
-121 -63 -203 -97 -113 -336 -253 -446 -261 -51 -4 -60 -2 -83 21 -32 32 -32
49 -2 112 42 86 145 182 285 265 138 82 266 110 309 66z"/>
<path d="M2580 2924 c0 -3 11 -24 24 -47 94 -163 166 -504 166 -784 l0 -83
265 0 c146 0 265 1 265 3 0 2 -9 21 -19 43 -30 62 -44 166 -38 278 6 114 37
222 131 456 l54 135 -145 3 c-80 1 -148 1 -150 -2 -2 -2 9 -30 25 -62 50 -101
66 -162 66 -251 -1 -68 -6 -91 -31 -145 -57 -120 -195 -222 -320 -235 -47 -5
-58 -3 -69 12 -18 25 -7 42 98 155 58 62 100 117 121 160 29 59 32 73 32 160
-1 81 -5 103 -27 153 l-27 57 -210 0 c-116 0 -211 -3 -211 -6z"/>
<path d="M3461 2875 c51 -145 73 -388 50 -558 -11 -80 -49 -246 -66 -289 -7
-17 3 -18 130 -18 119 0 136 2 131 15 -63 166 -89 393 -66 585 9 73 51 264 67
307 4 10 -21 13 -130 13 l-135 0 19 -55z"/>
<path d="M3775 2913 c28 -74 57 -205 67 -304 18 -176 -4 -361 -68 -576 l-6
-23 336 0 336 0 0 146 0 146 -22 -7 c-207 -65 -421 -93 -478 -63 -35 19 -37
58 -6 111 44 74 51 78 131 66 39 -5 102 -18 141 -29 38 -11 74 -20 78 -20 4 0
6 37 4 83 l-3 82 -45 -3 c-24 -2 -88 -21 -142 -42 -54 -22 -105 -40 -113 -40
-28 0 -37 36 -25 102 13 71 31 111 68 151 21 22 34 27 75 27 59 0 144 -21 243
-61 41 -16 79 -29 84 -29 6 0 10 59 10 150 l0 150 -336 0 c-316 0 -336 -1
-329 -17z"/>
</g>
</svg>
